<svg xmlns="http://www.w3.org/2000/svg" width="1733" height="472" viewBox="85 304 1733 472" role="img" aria-label="Zyou Wordmark+Logo">
<g transform="translate(0.000000,1080.000000) scale(0.100000,-0.100000)" fill="#ffffff" stroke="none">
<path d="M3490 7360 c-124 -27 -210 -128 -210 -246 0 -75 95 -538 120 -583 19&#xA;-32 83 -73 532 -336 281 -165 519 -308 529 -318 25 -27 33 -73 19 -108 -11&#xA;-25 -87 -66 -644 -346 -347 -175 -645 -331 -663 -346 -61 -54 -66 -144 -10&#xA;-194 46 -42 505 -318 557 -336 35 -12 82 -19 131 -19 l76 0 883 442 c823 412&#xA;886 445 937 495 35 36 66 81 90 131 32 67 37 87 41 172 3 81 1 108 -18 162&#xA;-26 78 -65 142 -117 191 -59 56 -2128 1236 -2178 1242 -22 3 -56 2 -75 -3z&#xA;M13129 6619 c-156 -20 -304 -94 -419 -208 -89 -88 -123 -136 -185 -259 -113&#xA;-223 -178 -520 -205 -927 -22 -328 15 -585 111 -764 48 -90 75 -122 149 -181&#xA;69 -56 131 -83 235 -105 71 -14 163 -16 745 -13 l665 3 70 24 c198 66 317 175&#xA;423 386 97 194 147 423 178 810 36 468 7 740 -98 928 -106 187 -248 278 -478&#xA;306 -101 13 -1093 13 -1191 0z m905 -625 c60 -24 131 -84 156 -134 50 -99 52&#xA;-374 4 -640 -41 -231 -130 -364 -267 -401 -22 -6 -189 -11 -395 -12 l-357 -2&#xA;-52 29 c-56 31 -89 71 -124 151 -20 46 -21 59 -16 200 7 169 28 340 57 463 48&#xA;204 157 330 314 362 23 5 174 8 336 6 266 -2 300 -4 344 -22z M6739 6578 c0&#xA;-7 -15 -157 -33 -333 -18 -176 -31 -323 -29 -327 2 -5 277 -8 610 -8 l605 0&#xA;-593 -446 c-634 -475 -701 -533 -758 -649 -47 -95 -69 -225 -52 -307 33 -162&#xA;128 -258 298 -302 54 -14 190 -16 1126 -16 l1066 0 5 33 c5 28 66 633 66 650&#xA;0 4 -275 8 -612 9 l-612 3 604 470 c436 340 616 485 647 525 87 110 126 228&#xA;127 385 1 108 -11 144 -69 214 -34 40 -133 86 -216 100 -100 17 -2179 15&#xA;-2180 -1z M9640 6572 c0 -10 -18 -194 -41 -408 -46 -437 -48 -571 -10 -717 54&#xA;-208 183 -343 387 -403 53 -16 120 -18 627 -21 l568 -4 -6 -32 c-14 -68 -43&#xA;-115 -86 -144 l-43 -28 -773 -3 -773 -2 0 -23 c0 -12 -11 -146 -25 -297 -14&#xA;-151 -25 -288 -25 -303 l0 -28 958 3 957 3 96 32 c199 68 308 178 354 359 8&#xA;32 57 489 110 1014 52 525 97 970 99 988 l5 32 -334 0 -335 0 -4 -22 c-3 -13&#xA;-24 -201 -46 -418 -22 -217 -43 -405 -46 -418 l-5 -23 -457 3 c-436 3 -459 4&#xA;-490 23 -47 28 -72 81 -72 153 0 55 44 584 55 665 l5 37 -325 0 c-309 0 -325&#xA;-1 -325 -18z M15426 6568 c-3 -13 -42 -392 -87 -843 -65 -654 -80 -839 -76&#xA;-916 19 -326 152 -517 412 -593 68 -20 95 -21 972 -24 l902 -3 5 23 c6 27 236&#xA;2334 236 2361 0 16 -21 17 -332 15 l-333 -3 -85 -852 -84 -853 -473 0 c-524 0&#xA;-527 0 -559 62 -11 19 -18 54 -17 83 0 44 143 1410 159 1523 l6 42 -321 0&#xA;-321 0 -4 -22z M3220 6270 c-30 -5 -348 -159 -916 -443 -819 -409 -873 -439&#xA;-925 -491 -140 -139 -176 -355 -90 -530 64 -129 21 -101 1175 -762 l1060 -607&#xA;60 0 c117 -1 218 75 252 190 l17 58 -55 277 c-38 190 -62 287 -77 311 -17 28&#xA;-110 87 -523 328 -277 162 -513 304 -525 316 -31 30 -32 99 -2 137 15 19 212&#xA;122 633 333 336 168 622 314 636 325 58 46 77 121 44 177 -18 31 -20 32 -312&#xA;212 -267 165 -331 189 -452 169z"></path>
</g>
</svg>