<svg xmlns="http://www.w3.org/2000/svg" width="543" height="472" viewBox="672 304 543 472" role="img" aria-label="Zyou Logo">
<g transform="translate(0.000000,1080.000000) scale(0.100000,-0.100000)" fill="#ffffff" stroke="none">
<path d="M9350 7357 c-117 -32 -200 -133 -200 -242 0 -46 95 -524 113 -566 8&#xA;-20 30 -48 48 -61 19 -14 256 -155 527 -313 377 -220 496 -294 507 -316 20&#xA;-38 19 -82 -2 -107 -10 -12 -305 -166 -656 -342 -700 -353 -690 -347 -690&#xA;-434 0 -28 7 -54 20 -72 26 -36 508 -335 578 -359 30 -10 81 -17 130 -17 l79&#xA;-1 875 437 c810 405 878 441 933 494 107 102 160 255 138 400 -14 90 -67 195&#xA;-127 253 -36 35 -308 196 -1078 637 -566 324 -1039 594 -1050 599 -35 18 -99&#xA;22 -145 10z M9100 6269 c-46 -5 -192 -75 -916 -437 -788 -394 -867 -436 -923&#xA;-487 -111 -103 -165 -261 -141 -408 16 -89 67 -190 127 -249 36 -35 305 -194&#xA;1098 -648 l1050 -602 61 -1 c112 -1 214 69 249 172 8 24 15 58 15 74 0 54&#xA;-100 541 -119 577 -10 19 -35 47 -57 62 -21 14 -255 153 -520 307 -498 291&#xA;-504 295 -504 359 0 66 2 67 665 402 687 348 685 346 685 428 0 78 -11 89&#xA;-273 250 -133 83 -265 161 -291 173 -60 26 -134 36 -206 28z"></path>
</g>
</svg>