<svg xmlns="http://www.w3.org/2000/svg" width="1349.39" height="337.27" viewBox="-33.7108 -305.0586 1349.3944 337.2656">
  <path d="M273.83-177.54L144.92-77.15L286.91-77.15L279.10 0.98L41.60 0.98Q-0.59-3.12-5.47-38.09Q-7.62-73.05 24.02-96.29L156.64-196.09L16.21-196.09L23.83-273.05L260.55-273.05Q311.13-270.70 304.30-226.76Q300.39-195.31 273.83-177.54M555.23-273.05L630.82-273.05L608.75-52.15Q604.26-3.71 548.01 3.71L336.88 4.10L343.32-69.14L507.97-68.95Q532.58-68.95 534.92-92.77L534.73-94.34L427.11-94.34Q346.84-92.38 351.13-181.64L360.51-272.85L433.16-273.05L426.52-198.05Q423.79-174.61 444.10-172.46L544.49-172.46L555.23-273.05M867.50 3.52L738.20 3.52Q651.88 3.91 666.33-135.35Q679.80-276.17 771.41-276.95L877.46-276.76Q972.97-278.52 957.73-140.82Q951.48 1.76 867.50 3.52M741.72-91.60Q747.38-73.05 765.35-69.73L840.94-69.92Q860.08-71.87 867.89-87.30Q877.27-98.24 880.88-140.14Q884.49-182.03 875.12-193.55Q866.13-205.66 846.99-207.42L788.79-207.42Q763.59-205.47 753.05-183.01Q746.02-172.46 742.01-135.84Q738.01-99.22 741.72-91.60M1212.58-273.24L1287.58-273.44L1260.23-0.39L1075.66-0.39Q995.78 1.37 1000.27-87.11L1018.83-273.24L1091.29-273.24L1072.93-102.73Q1068.24-76.37 1092.66-78.12L1193.05-78.12Z" fill="#ffffff"></path>
</svg>